<?xml version="1.0" encoding="utf-8"?>
<!-- Generator: Adobe Illustrator 16.0.0, SVG Export Plug-In . SVG Version: 6.00 Build 0)  -->
<!DOCTYPE svg PUBLIC "-//W3C//DTD SVG 1.1//EN" "http://www.w3.org/Graphics/SVG/1.1/DTD/svg11.dtd">
<svg version="1.1"
	 id="svg2" xmlns:dc="http://purl.org/dc/elements/1.1/" xmlns:cc="http://creativecommons.org/ns#" xmlns:rdf="http://www.w3.org/1999/02/22-rdf-syntax-ns#" xmlns:svg="http://www.w3.org/2000/svg"
	 xmlns="http://www.w3.org/2000/svg" xmlns:xlink="http://www.w3.org/1999/xlink" x="0px" y="0px" width="1008px"
	 height="917.333px" viewBox="0 0 1008 917.333" enable-background="new 0 0 1008 917.333" xml:space="preserve">
<g id="g10" transform="matrix(1.3333333,0,0,-1.3333333,0,917.33333)">
	<g id="g12">
		<g>
			<defs>
				<rect id="SVGID_1_" x="-126" y="-114.666" width="1008" height="917.333"/>
			</defs>
			<clipPath id="SVGID_2_">
				<use xlink:href="#SVGID_1_"  overflow="visible"/>
			</clipPath>
			<g id="g14" clip-path="url(#SVGID_2_)">
				<g id="g20" transform="translate(651.8447,334.2061)">
					<path id="path22" fill="none" stroke="#2D2C2E" stroke-width="23" stroke-miterlimit="10" d="M0,0
						c0-157.417-127.611-285.028-285.028-285.028c-157.417,0-285.029,127.611-285.029,285.028
						c0,157.417,127.612,285.029,285.029,285.029C-127.611,285.029,0,157.417,0,0z"/>
				</g>
				<g id="g24" transform="translate(451.0879,501.2393)">
					<path id="path26" fill="#2D2C2E" d="M0,0c-14.912,0-27-12.088-27-26.999c0-14.911,12.088-26.999,27-26.999
						c14.91,0,26.998,12.088,26.998,26.999C26.998-12.088,14.91,0,0,0 M-164.992,0c-14.911,0-26.999-12.088-26.999-26.999
						c0-14.911,12.088-26.999,26.999-26.999c14.91,0,26.998,12.088,26.998,26.999C-137.994-12.088-150.082,0-164.992,0
						 M92.246,42.761c0,0-165.944-621.297-353.334,0l-2.689,11.617c0,0,169.997,143.617,359.009,0L92.246,42.761z"/>
				</g>
				<g id="g28" transform="translate(216.6245,589.3125)">
					<path id="path30" fill="#2D2C2E" d="M0,0c0,0-376.271-95.015-76.286-83.742"/>
				</g>
				<g id="g32" transform="translate(516.4287,589.3125)">
					<path id="path34" fill="#2D2C2E" d="M0,0c0,0,376.271-95.015,76.286-83.742"/>
				</g>
				<g id="g36" transform="translate(121.2314,83.9854)">
					<path id="path38" fill="#2D2C2E" d="M0,0.001l-50.887,16.175c0,0,41.778,124.696,110.108,93.716l-2.137,0.866
						c68.696-30.309-15.28-140.13-15.28-140.13L-3.308,1.392"/>
				</g>
				<g id="g40" transform="translate(606.1885,83.9849)">
					<path id="path42" fill="#2D2C2E" d="M0,0l50.888,16.175c0,0-41.78,124.698-110.109,93.718l2.136,0.866
						c-68.695-30.309,15.281-140.13,15.281-140.13L3.308,1.393"/>
				</g>
			</g>
		</g>
	</g>
</g>
</svg>
